<!DOCTYPE svg PUBLIC "-//W3C//DTD SVG 1.1//EN" "http://www.w3.org/Graphics/SVG/1.1/DTD/svg11.dtd">
<!-- Uploaded to: SVG Repo, www.svgrepo.com, Transformed by: SVG Repo Mixer Tools -->
<svg height="64px" width="64px" version="1.1" id="Layer_1" xmlns="http://www.w3.org/2000/svg" xmlns:xlink="http://www.w3.org/1999/xlink" viewBox="0 0 511.999 511.999" xml:space="preserve" fill="#000000">
<g id="SVGRepo_bgCarrier" stroke-width="0"/>
<g id="SVGRepo_tracerCarrier" stroke-linecap="round" stroke-linejoin="round"/>
<g id="SVGRepo_iconCarrier"> <path style="fill:#B492AC;" d="M188.587,387.979c-30.013,17.532-52.579,46.411-61.833,80.751 c36.755,21.479,79.327,34.09,124.785,34.866l4.462,0.038l53.542-55.773l-58.004-59.882H188.587z"/> <path style="fill:#9B7099;" d="M385.247,468.73c-9.254-34.341-31.821-63.22-61.833-80.751l0,0l0,0H188.587 c-12.025,7.024-22.85,15.874-32.106,26.162c10.298,8.167,21.254,15.164,32.696,20.73c14.03,6.825,28.469,11.457,43.141,13.855 c13.599,2.222,23.685,13.788,23.685,27.566v27.342C303.134,503.634,347.292,490.911,385.247,468.73z"/> <path style="opacity:0.6;fill:#834F86;enable-background:new ;" d="M327.39,493.557c9.254-2.677,18.292-5.864,27.084-9.523 c-3.893-19.663-13.526-37.263-27.084-50.975V493.557z"/> <path style="fill:#9B7099;" d="M157.528,484.034c8.792,3.66,17.829,6.846,27.084,9.523v-60.499 C171.054,446.771,161.421,464.371,157.528,484.034z"/> <g> <polygon style="fill:#CF8575;" points="211.382,409.068 255.877,453.438 300.619,408.82 "/> <path style="fill:#CF8575;" d="M397.544,176.943c0.848,2.033,1.661,4.081,2.441,6.139 C399.205,181.024,398.392,178.977,397.544,176.943z"/> <path style="fill:#CF8575;" d="M402.351,189.676c0.675,1.989,1.315,3.988,1.924,5.993 C403.667,193.663,403.025,191.666,402.351,189.676z"/> <path style="fill:#CF8575;" d="M400.071,183.31c0.751,1.988,1.468,3.988,2.153,5.996 C401.539,187.296,400.822,185.298,400.071,183.31z"/> </g> <g> <path style="fill:#E1A996;" d="M109.505,190.098c0.643-1.909,1.314-3.808,2.016-5.699 C110.82,186.29,110.147,188.19,109.505,190.098z"/> <path style="fill:#E1A996;" d="M107.581,196.135c0.568-1.888,1.167-3.769,1.794-5.642 C108.749,192.367,108.149,194.248,107.581,196.135z"/> <path style="fill:#E1A996;" d="M105.83,202.326c0.51-1.929,1.055-3.849,1.626-5.766 C106.885,198.477,106.339,200.398,105.83,202.326z"/> </g> <path style="fill:#CF8575;" d="M428.897,196.883c-8.183,0-15.901,1.971-22.727,5.445c-0.558-2.11-1.156-4.214-1.787-6.309 c-0.035-0.116-0.071-0.232-0.107-0.348c-0.609-2.006-1.25-4.004-1.924-5.993c-0.196-0.581-0.412-1.154-0.503-1.784 c-0.184-1.257-0.689-2.432-1.313-3.539c-0.239-0.424-0.389-0.847-0.55-1.271c-0.78-2.058-1.593-4.105-2.441-6.139 c-0.001-0.001-0.001-0.003-0.002-0.004v-0.001c-8.573-16.763-18.853-30.762-30.693-41.738 c-10.577-9.806-22.198-17.084-34.674-21.766c-4.639-1.74-9.393-3.133-14.261-4.147c-29.194-6.085-60.734,2.383-80.346,21.57 c-7.94,7.768-13.858,16.492-18.094,26.67c-0.102,0.243-0.199,0.489-0.292,0.735c-5.103,13.442-7.948,29.125-8.887,49.558 c-14.54,5.037-40.052,9.785-64.753-5.613c-2.221-1.385-4.557-3.417-7.137-6.21c-6.958-7.533-15.346-13.48-24.547-17.602 c-0.784,1.923-1.536,3.857-2.26,5.8c-0.026,0.069-0.051,0.137-0.076,0.206c-0.702,1.891-1.373,3.79-2.016,5.699 c-0.045,0.132-0.087,0.263-0.132,0.395c-0.627,1.874-1.226,3.755-1.794,5.642c-0.042,0.142-0.083,0.283-0.125,0.425 c-0.571,1.915-1.117,3.837-1.626,5.766l94.325,209.976c17.342,8.436,36.167,13.251,55.845,13.251 c71.339,0,131.503-63.099,150.171-133.721c6.824,3.472,14.542,5.443,22.725,5.443c27.722,0,50.196-22.473,50.196-50.196 C479.092,219.356,456.619,196.883,428.897,196.883z"/> <path style="fill:#E1A996;" d="M378.701,235.924c0-1.255-0.044-2.513-0.073-3.77c-0.021-0.008-0.041-0.012-0.062-0.019 c-9.017-3.211-16.135-10.285-20.043-19.915c-12.53-30.87-30.114-49.473-50.847-53.793c-15.017-3.129-28.674,2.113-35.006,8.309 c-3.051,2.985-5.072,5.911-6.704,9.72c-3.922,10.579-5.828,26.208-5.828,47.755c0,8.853-4.665,17.052-12.275,21.575 c-1.741,1.034-29.396,17.091-65.937,17.091c-13.601,0-28.433-2.241-43.62-8.295c-3.054-1.217-5.011-4.163-5.007-7.451 c0-0.018,0-0.036,0-0.054c0-19.539-11.172-36.46-27.47-44.752c-7.8-3.969-16.768-5.976-26.261-5.321 c-25.422,1.754-45.715,22.765-46.626,48.232c-1.022,28.561,21.83,52.037,50.162,52.037c8.187,0,15.909-1.972,22.736-5.449 c13.519,51.138,48.788,98.33,94.314,120.476c7.311,1.365,14.781,2.096,22.382,2.096 C308.784,414.397,378.701,322.171,378.701,235.924z"/> <circle style="opacity:0.5;fill:#BE6054;enable-background:new ;" cx="428.894" cy="247.074" r="16.732"/> <g> <circle style="fill:#CF8575;" cx="83.102" cy="247.074" r="16.732"/> <path style="fill:#CF8575;" d="M200.227,280.542c-18.452,0-33.464-15.012-33.464-33.464c0-4.62,3.745-8.366,8.366-8.366 s8.366,3.746,8.366,8.366c0,9.226,7.506,16.732,16.732,16.732c4.621,0,8.366,3.746,8.366,8.366 C208.593,276.796,204.849,280.542,200.227,280.542z"/> <path style="fill:#CF8575;" d="M311.773,280.542c-4.621,0-8.366-3.746-8.366-8.366c0-4.62,3.745-8.366,8.366-8.366 c9.226,0,16.732-7.506,16.732-16.732c0-4.62,3.745-8.366,8.366-8.366c4.621,0,8.366,3.746,8.366,8.366 C345.237,265.53,330.225,280.542,311.773,280.542z"/> </g> <g> <path style="fill:#978574;" d="M286.131,52.576c0.035-0.09,0.058-0.152,0.058-0.152L286.131,52.576z"/> <path style="fill:#978574;" d="M286.068,52.742l0.064-0.166C286.113,52.622,286.093,52.674,286.068,52.742z"/> <path style="fill:#978574;" d="M83.107,196.883c0.001-1.898,0.044-3.788,0.105-5.672C83.15,193.096,83.108,194.984,83.107,196.883z "/> <path style="fill:#978574;" d="M241.767,169.597c-0.569,1.656-1.107,3.389-1.61,5.208 C240.661,172.986,241.198,171.254,241.767,169.597z"/> <path style="fill:#978574;" d="M83.256,189.908c0.075-1.893,0.17-3.78,0.303-5.658C83.427,186.129,83.331,188.016,83.256,189.908z"/> <path style="fill:#978574;" d="M235.553,205.606c-0.168,2.817-0.297,5.768-0.383,8.866 C235.256,211.374,235.385,208.422,235.553,205.606z"/> <path style="fill:#978574;" d="M83.563,184.212c0.135-1.9,0.309-3.79,0.503-5.674C83.872,180.423,83.698,182.313,83.563,184.212z"/> <path style="fill:#978574;" d="M236.581,193.806c-0.287,2.436-0.535,4.991-0.745,7.674 C236.045,198.796,236.294,196.241,236.581,193.806z"/> <path style="fill:#978574;" d="M84.166,177.57c0.209-1.921,0.441-3.835,0.709-5.738C84.608,173.735,84.375,175.649,84.166,177.57z"/> </g> <g> <path style="fill:#827061;" d="M84.876,171.832L84.876,171.832L84.876,171.832z"/> <path style="fill:#827061;" d="M83.559,184.251c0.001-0.013,0.002-0.026,0.003-0.039C83.562,184.226,83.561,184.238,83.559,184.251 z"/> <path style="fill:#827061;" d="M83.21,191.211c0.013-0.434,0.029-0.869,0.046-1.303C83.239,190.342,83.225,190.776,83.21,191.211z"/> <path style="fill:#827061;" d="M84.066,178.539c0.033-0.322,0.066-0.646,0.102-0.968C84.132,177.893,84.098,178.215,84.066,178.539 z"/> <path style="fill:#827061;" d="M428.895,196.883c-0.038-39.877-16.001-75.972-41.801-102.102 c-25.82-26.173-61.496-42.357-100.906-42.357L214.47,83.29l28.175,83.879c3.12-7.497,7.249-13.261,12.474-18.373 c24.607-24.072,91.445-32.772,126.66,53.988c4.345,10.71,14.21,5.099,22.203,0.725c7.343-4.209,15.844-6.626,24.914-6.626h-0.001 V196.883z"/> <path style="fill:#827061;" d="M231.103,10.033C149.134,33.38,83.176,107.568,83.105,196.884h-0.001 c14.577,0,27.697,6.219,36.865,16.143c3.67,3.972,7.702,7.615,12.292,10.476c50.746,31.636,102.779,0.709,102.779,0.709 c0-27.199,2.796-44.377,7.604-57.043c10.985-28.941,43.544-114.745,43.544-114.745C286.189,23.314,258.767,2.147,231.103,10.033z"/> </g> <g> <path style="opacity:0.4;fill:#978574;enable-background:new ;" d="M366.849,135.199c5.113,4.741,9.936,10.042,14.457,15.889 c10.728,13.872,27.605,21.339,45.131,20.764c0.098-0.003,0.196-0.007,0.296-0.009c0.328,1.896,0.617,3.806,0.872,5.727 c-4.267-32.149-18.949-60.95-40.511-82.788c-14.708-14.909-32.618-26.57-52.593-33.852c-3.509,9.249-7.932,20.904-12.541,33.049 c-2.915,7.68,1.113,16.201,8.856,18.945c0.044,0.016,0.087,0.031,0.129,0.046C343.891,117.626,355.924,125.071,366.849,135.199z"/> <path style="fill:#978574;" d="M231.103,10.033c-30.644,8.727-59.047,24.562-82.606,45.636 c-39.894,35.686-44.805,96.419-11.609,138.408l0,0c1.329,1.681,2.752,3.288,4.322,4.745c1.509,1.399,2.943,2.518,4.33,3.383 c20.629,12.86,41.824,11.669,56.72,7.992c4.704-1.161,8.131-5.2,8.491-10.031c1.25-16.777,3.982-30.19,8.43-41.904 c0.094-0.247,53.097-138.117,53.097-138.117C261.722,10.236,246.453,5.657,231.103,10.033z"/> </g> <path d="M324.695,188.932c-8.465,2.75-17.4,2.752-25.836,0.004c-4.393-1.431-9.114,0.97-10.546,5.365 c-1.43,4.393,0.972,9.114,5.365,10.544c5.912,1.925,11.995,2.887,18.082,2.887c6.088,0,12.181-0.963,18.105-2.888 c4.394-1.428,6.8-6.147,5.371-10.541C333.809,189.909,329.082,187.504,324.695,188.932z"/> <path d="M272.732,255.444h-33.464c-4.62,0-8.366,3.746-8.366,8.366c0,4.62,3.746,8.366,8.366,8.366h33.464 c4.621,0,8.366-3.746,8.366-8.366C281.098,259.19,277.354,255.444,272.732,255.444z"/> <circle cx="311.771" cy="247.074" r="16.732"/> <path d="M332.904,426.731c-3.267-3.267-8.565-3.268-11.831,0c-3.268,3.267-3.268,8.563-0.001,11.831 c12.948,12.948,21.661,29.236,25.196,47.101c0.789,3.984,4.284,6.744,8.199,6.744c0.538,0,1.085-0.052,1.633-0.161 c4.532-0.897,7.479-5.298,6.582-9.831C358.501,461.288,348.203,442.032,332.904,426.731z"/> <path d="M179.097,426.731c-15.3,15.301-25.596,34.556-29.777,55.685c-0.897,4.532,2.05,8.934,6.582,9.831 c0.549,0.108,1.094,0.161,1.633,0.161c3.913,0,7.41-2.76,8.199-6.744c3.535-17.865,12.247-34.153,25.196-47.101 c3.267-3.267,3.267-8.565-0.001-11.831C187.662,423.464,182.365,423.465,179.097,426.731z"/> <path d="M437.061,189.098c-1.896-37.866-17.357-73.198-44.012-100.193c-26.697-27.063-61.642-42.749-99.112-44.652 c-2.056-13.459-9.175-25.499-20.223-33.839C260.74,0.623,244.376-2.45,228.81,1.986c-42.352,12.063-81.022,37.43-108.889,71.431 c-27.81,33.928-43.281,73.775-45.014,115.685c-28.422,4-50.365,28.468-50.365,57.976c0,32.291,26.271,58.562,58.562,58.562 c5.94,0,11.721-0.87,17.278-2.593c11.645,36.97,33.713,70.267,61.528,93.952c-21.036,18.546-35.941,42.486-43.235,69.556 c-1.201,4.462,1.44,9.052,5.902,10.254c0.728,0.196,1.461,0.29,2.182,0.29c3.689,0,7.066-2.46,8.073-6.192 c6.714-24.917,20.758-46.825,40.626-63.471c6.769,4.705,13.796,8.867,21.036,12.388c6.81,3.313,13.81,6.077,20.852,8.235 l30.194,34.125v41.448c0,4.62,3.745,8.366,8.366,8.366s8.366-3.746,8.366-8.366v-41.448l30.15-34.075 c14.655-4.457,28.833-11.421,42.14-20.652c19.602,16.456,33.984,38.867,40.608,63.447c1.005,3.732,4.384,6.192,8.071,6.192 c0.721,0,1.453-0.094,2.182-0.29c4.462-1.202,7.103-5.794,5.901-10.254c-7.192-26.693-22.445-51.126-43.233-69.525 c6.688-5.693,13.104-11.969,19.168-18.835c19.145-21.676,33.68-47.494,42.372-75.143c5.554,1.72,11.33,2.589,17.265,2.589 c32.29,0,58.562-26.27,58.562-58.562C487.458,217.559,465.499,193.085,437.061,189.098z M233.396,18.078 c10.474-2.983,21.493-0.91,30.239,5.692c8.638,6.52,13.734,16.383,14.147,27.228l-18.601,49.02c-1.64,4.32,0.534,9.15,4.853,10.79 c0.977,0.371,1.98,0.547,2.967,0.547c3.374,0,6.554-2.057,7.823-5.4l17.089-45.034c33.72,1.423,65.22,15.401,89.229,39.739 c23.557,23.86,37.301,55.04,39.168,88.494c-7.163,1.064-14.1,3.451-20.412,7.056l-0.31,0.17c-2.483,1.36-7.495,4.105-9.59,4.206 c-0.116-0.185-0.28-0.486-0.467-0.947c-21.379-52.672-52.602-69.298-75.03-73.971c-23.888-4.977-49.494,1.754-65.232,17.149 c-6.388,6.25-10.946,12.967-14.347,21.139c-0.033,0.081-0.066,0.163-0.097,0.245c-5.192,13.68-7.795,31.222-8.115,54.907 c-5.037,2.396-14.404,6.276-26.19,8.51c-23.321,4.423-44.801,0.65-63.831-11.214c-3.506-2.185-6.965-5.148-10.575-9.054 c-9.102-9.854-21.336-16.247-34.46-18.199C95.266,110.768,152.547,41.106,233.396,18.078z M428.897,288.908 c-4.447,0-8.765-0.698-12.909-2.05c3.007-13.365,4.543-26.715,4.543-39.779c0-4.614,3.752-8.366,8.366-8.366 s8.366,3.752,8.366,8.366c0,4.62,3.745,8.366,8.366,8.366c4.621,0,8.366-3.746,8.366-8.366c0-13.839-11.259-25.098-25.098-25.098 c-13.838,0-25.098,11.258-25.098,25.098c0,13.896-1.911,28.191-5.679,42.487c-0.003,0.013-0.004,0.027-0.009,0.04 c-0.008,0.03-0.021,0.058-0.029,0.088c-15.701,59.398-60.285,108.888-110.941,123.146c-2.189,0.616-3.924,2.05-4.977,3.875 l-26.258,29.677l-25.691-29.038c-0.996-2.125-2.869-3.824-5.305-4.509c-7.105-1.999-14.202-4.713-21.096-8.066 c-42.087-20.474-76.529-64.575-89.886-115.092c-0.021-0.078-0.051-0.152-0.075-0.229c-3.749-14.26-5.652-28.518-5.652-42.378 c0-13.839-11.259-25.098-25.098-25.098S58.005,233.24,58.005,247.08c0,4.62,3.745,8.366,8.366,8.366s8.366-3.746,8.366-8.366 c0-4.614,3.752-8.366,8.366-8.366s8.366,3.752,8.366,8.366c0,13.064,1.536,26.414,4.543,39.779c-4.144,1.352-8.462,2.05-12.909,2.05 c-23.065,0-41.83-18.764-41.83-41.83s18.764-41.83,41.83-41.83c11.624,0,22.821,4.904,30.72,13.455 c4.638,5.02,9.223,8.911,14.012,11.899c18.818,11.731,37.667,15.612,54.376,15.611c0.446,0,0.885-0.012,1.327-0.018 c-0.016,0.294-0.045,0.586-0.045,0.885c0,9.24,7.491,16.732,16.732,16.732c9.24,0,16.732-7.491,16.732-16.732 c0-2.086-0.399-4.075-1.096-5.916c13.697-4.078,22.555-9.225,23.453-9.759c2.537-1.508,4.092-4.241,4.092-7.191 c0-24.125,2.229-41.274,7.013-53.95c2.502-5.97,5.856-10.895,10.55-15.486c9.72-9.508,28.992-17.131,50.119-12.73 c18.443,3.843,44.334,18.045,62.939,63.882c2.677,6.597,6.998,9.32,10.154,10.444c8.315,2.962,16.704-1.63,23.444-5.32l0.375-0.205 c0.049-0.027,0.097-0.054,0.145-0.08c6.299-3.611,13.476-5.519,20.752-5.519h0.001h0.001c23.065,0,41.83,18.764,41.83,41.83 S451.962,288.908,428.897,288.908z"/> </g>
</svg>